<?xml version="1.0" encoding="UTF-8" standalone="no"?>
<svg
   xmlns:dc="http://purl.org/dc/elements/1.1/"
   xmlns:cc="http://creativecommons.org/ns#"
   xmlns:rdf="http://www.w3.org/1999/02/22-rdf-syntax-ns#"
   xmlns:svg="http://www.w3.org/2000/svg"
   xmlns="http://www.w3.org/2000/svg"
   xmlns:sodipodi="http://sodipodi.sourceforge.net/DTD/sodipodi-0.dtd"
   xmlns:inkscape="http://www.inkscape.org/namespaces/inkscape"
   width="192mm"
   height="192mm"
   viewBox="0 0 192 192"
   version="1.1"
   id="svg2115"
   inkscape:version="1.0.2-2 (e86c870879, 2021-01-15)"
   sodipodi:docname="CABOREYES.svg">
  <defs
     id="defs2109" />
  <sodipodi:namedview
     id="base"
     pagecolor="#ffffff"
     bordercolor="#666666"
     borderopacity="1.0"
     inkscape:pageopacity="0.0"
     inkscape:pageshadow="2"
     inkscape:zoom="0.35"
     inkscape:cx="196.13433"
     inkscape:cy="591.67135"
     inkscape:document-units="mm"
     inkscape:current-layer="layer1"
     inkscape:document-rotation="0"
     showgrid="false"
     inkscape:window-width="1920"
     inkscape:window-height="986"
     inkscape:window-x="-11"
     inkscape:window-y="-11"
     inkscape:window-maximized="1"
     showguides="true"
     inkscape:guide-bbox="true">
    <sodipodi:guide
       position="249.46428,98.261902"
       orientation="0,-1"
       id="guide875" />
    <sodipodi:guide
       position="-42.333333,358.9881"
       orientation="0.70710678,-0.70710678"
       id="guide877" />
    <sodipodi:guide
       position="95.249997,308.41666"
       orientation="1,0"
       id="guide879" />
  </sodipodi:namedview>
  <metadata
     id="metadata2112">
    <rdf:RDF>
      <cc:Work
         rdf:about="">
        <dc:format>image/svg+xml</dc:format>
        <dc:type
           rdf:resource="http://purl.org/dc/dcmitype/StillImage" />
        <dc:title></dc:title>
      </cc:Work>
    </rdf:RDF>
  </metadata>
  <g
     inkscape:label="Capa 1"
     inkscape:groupmode="layer"
     id="layer1">
    <path
       d="M 20.843597,119.60273 H 170.22983 l 2.00211,-7.08599 c 0.5286,-1.84819 2.00902,-3.28353 3.86257,-3.74631 l 7.40039,-1.83473 V 77.779542 l -7.37793,-1.85355 c -1.83455,-0.4576 -3.31497,-1.87584 -3.86776,-3.69657 l -2.10403,-6.8996 H 20.917875 l -2.107482,6.90651 c -0.481933,1.58235 -1.730906,2.92302 -3.261424,3.49463 l -6.3414594,2.36177 v 28.488678 l 6.3310934,2.37852 c 1.584073,0.59458 2.81056,1.9299 3.2787,3.57236 z m 151.308873,2.54125 H 18.927855 l -2.554893,-8.91397 c -0.248753,-0.87185 -0.894819,-1.57837 -1.727449,-1.88931 L 6.6647071,108.34323 V 76.326762 l 7.9963529,-2.97778 c 0.789446,-0.29556 1.464878,-1.02438 1.718811,-1.85562 l 2.65509,-8.70617 H 172.0281 l 2.65336,8.70271 c 0.29542,0.97238 1.08138,1.72745 2.05394,1.97102 l 9.30057,2.33758 v 33.127048 l -9.32649,2.31115 c -0.97428,0.24356 -1.75163,1.00003 -2.03148,1.97638 l -2.52553,8.9309"
       style="fill:#436cac;fill-opacity:1;fill-rule:nonzero;stroke:none;stroke-width:0.172745"
       id="path606" />
    <path
       d="M 24.605979,114.60868 H 166.45362 l 0.97946,-3.46301 c 1.01747,-3.55889 3.8764,-6.32488 7.46086,-7.21953 l 3.60691,-0.89619 V 81.671832 l -3.5931,-0.90363 c -3.52917,-0.87927 -6.37774,-3.59448 -7.4332,-7.08116 l -1.02611,-3.36455 H 24.612888 l -1.027832,3.36662 c -0.938003,3.08177 -3.290785,5.59521 -6.293091,6.71944 l -3.092131,1.15255 v 21.563338 l 3.093859,1.15929 c 3.059309,1.15048 5.424186,3.71937 6.322457,6.87196 z m 143.630371,2.35831 H 22.828437 l -1.478697,-5.16351 c -0.696164,-2.43933 -2.522076,-4.42382 -4.885225,-5.3119 l -4.622649,-1.73419 V 79.923482 l 4.626106,-1.7221 c 2.318236,-0.86908 4.137239,-2.81245 4.862764,-5.19789 l 1.537433,-5.03931 H 168.19317 l 1.53742,5.03724 c 0.81709,2.69983 3.01958,4.8004 5.74722,5.48136 h 0.003 l 5.37754,1.35294 v 25.039138 l -5.39482,1.33877 c -2.76909,0.69098 -4.9785,2.82732 -5.76276,5.57776 l -1.46488,5.1756"
       style="fill:#426cac;fill-opacity:0.603922;fill-rule:nonzero;stroke:none;stroke-width:0.172745"
       id="path608" />
    <path
       d="m 71.457825,57.752032 c -5.11498,-0.80361 -10.03993,-4.308598 -11.31651,-9.324911 -0.9691,-3.807789 0.21247,-7.813195 0.0274,-11.736404 -4.1407,5.31189 -5.04588,12.955808 -2.26123,19.088215 -3.71747,-0.1539 -7.31747,-2.112661 -9.46469,-5.149323 0.10538,4.646643 4.75739,8.075793 9.3524,8.787163 4.59329,0.71188 9.53551,0.49785 14.15126,-0.0601 5.16679,-0.62551 8.86354,-0.98448 14.68676,0.59787 v 0 c -2.22841,-0.77943 -4.85931,-1.57423 -6.3311,-1.72279 -2.94011,-0.29884 -5.92514,-0.022 -8.84453,-0.47973"
       style="fill:#436cac;fill-opacity:1;fill-rule:nonzero;stroke:none;stroke-width:0.172745"
       id="path632" />
    <path
       d="m 31.61769,62.108472 c -3.622458,-3.08522 -8.564686,-4.56236 -13.285803,-3.9752 -4.721116,0.58768 -9.1502914,3.23223 -11.9072949,7.1088 2.5134318,-0.64106 5.0251409,-1.28332 7.5368509,-1.92645 -1.242034,6.90098 -7.3071029,12.6501 -14.26353361,13.52056 4.10268821,0.61687 8.23647281,-1.48854 11.08502961,-4.50484 2.848564,-3.01629 4.639925,-6.85313 6.360465,-10.62916 3.586183,-0.62896 7.348565,-1.24894 10.806915,-0.11194 1.699807,0.55797 4.836856,0.84818 7.529944,2.57563 l -3.862573,-2.0574"
       style="fill:#436cac;fill-opacity:1;fill-rule:nonzero;stroke:none;stroke-width:0.172745"
       id="path634" />
    <path
       d="m 89.392199,57.689322 c -1.677364,-1.41098 -3.904044,-2.08987 -6.016704,-2.51361 -2.55317,-0.514257 -5.1858,-0.713264 -7.64223,-1.576981 -2.94012,-1.033184 -5.94243,-3.498069 -6.05817,-6.836861 -0.28846,-8.330233 12.23206,-7.60747 11.36316,-0.658667 0.32475,-2.599285 0.0274,-6.108054 -2.11094,-8.039338 -2.54626,-2.295609 -7.69233,-2.300961 -10.15221,0.07291 -2.47717,2.390781 -3.61901,6.1547 -3.05068,9.525282 0.63225,3.748366 3.38234,7.349738 7.14645,8.166815 3.06104,0.66334 6.25336,0.48042 9.3455,1.15584 2.41151,0.52842 6.41574,1.68564 7.733781,4.01303 1.12113,1.97776 1.77583,2.17952 -0.0795,1.69981 -14.569303,-3.77482 -29.364893,-0.19919 -29.364893,-0.19919 -8.08619,2.4604 -17.26757,-1.24826 -19.686001,-9.347048 -0.25737,1.825911 -0.514775,3.649918 -0.770437,5.475828 -2.883115,-2.51689 -4.579465,-6.337472 -4.508639,-10.164261 -1.995206,4.258646 -0.05181,9.625821 3.603454,12.582691 3.655283,2.95964 8.599233,3.86448 13.299623,3.70728 4.70039,-0.15718 9.30922,-1.26587 13.9716,-1.88793 8.13801,-1.08656 17.19847,-1.36779 25.191383,0.50805 -0.38004,-1.79154 -0.74626,-4.44818 -2.214597,-5.68366"
       style="fill:#436cac;fill-opacity:1;fill-rule:nonzero;stroke:none;stroke-width:0.172745"
       id="path636" />
    <path
       d="m 55.729415,61.457232 -3.13878,-0.34204 c -4.16142,-0.45622 -7.4142,-3.31669 -10.2835,-5.8424 -0.37313,-0.327877 -0.74107,-0.653147 -1.107288,-0.967534 -0.234944,1.290744 -0.397318,3.618824 0.963918,5.239684 l -0.974284,0.81709 c -2.425337,-2.88536 -1.033013,-7.226258 -0.972554,-7.409015 l 0.291942,-0.884627 0.716892,0.592337 c 0.635704,0.527047 1.273134,1.088464 1.919194,1.656621 1.8311,1.609974 3.70019,3.254504 5.79386,4.339514 -0.21594,-0.32788 -0.38522,-0.72397 -0.60288,-1.2733 -0.59942,-1.49943 -0.41631,-3.703121 -0.27294,-5.473749 0.0274,-0.31647 0.0518,-0.615487 0.0691,-0.890147 l 0.0656,-0.974284 0.86545,0.454657 c 1.60826,0.846277 2.67236,1.041304 3.86776,0.668177 0.40765,-5.47391 2.643,-10.7115 6.32246,-14.793288 l 1.18157,-1.30975 -0.0743,1.761824 c -0.12609,2.962916 0.42841,5.992672 1.57889,8.741207 0.40593,-3.118205 1.76026,-5.977293 3.8263,-7.948309 2.37696,-2.267966 6.06679,-3.415166 8.96372,-2.789656 3.37716,0.727429 4.70212,3.964493 5.67121,6.327469 l -1.17639,0.481787 c -1.11593,-2.725391 -2.24395,-5.024971 -4.76084,-5.56756 -2.51517,-0.541904 -5.72995,0.473658 -7.82016,2.466969 -2.35279,2.244297 -3.67947,5.793666 -3.55163,9.496255 l 0.0881,2.573535 -1.27658,-2.236858 c -1.69118,-2.964282 -2.66718,-6.394804 -2.81229,-9.822742 -2.9142,3.755808 -4.64856,8.351141 -4.91977,13.115074 l -0.0225,0.406127 -0.37832,0.14856 c -1.64971,0.651077 -3.01612,0.443937 -4.44127,-0.17828 -0.12785,1.549331 -0.29713,3.657332 0.18657,4.873282 0.56142,1.4096 0.56142,1.4096 3.45317,3.01233 l 2.76046,1.53103"
       style="fill:#436cac;fill-opacity:1;fill-rule:nonzero;stroke:none;stroke-width:0.172745"
       id="path638" />
    <path
       d="m 5.7647077,76.038622 -0.473315,-1.18019 c 2.1109428,-0.84611 5.1287943,-7.8079 6.3604613,-11.71694 -1.8069067,0.77407 -3.6483648,1.49269 -5.4950086,2.14515 l -4.8057601,1.69635 4.2408864,-2.82386 c 2.1213048,-1.41374 4.1631456,-2.98728 6.0702493,-4.67637 l 0.374842,-0.33528 c 0.806717,-0.72069 1.641076,-1.46626 2.599807,-2.05411 2.765648,-1.691 6.555666,-1.95547 10.134941,-0.70307 3.600002,1.25913 6.547028,3.79019 8.452399,5.58657 l 2.682727,2.52915 -3.375429,-1.48595 c -2.03839,-0.8962 -4.149334,-1.69774 -6.274092,-2.38336 l 0.388652,-1.20921 c 0.918998,0.29488 1.832821,0.61273 2.741458,0.95009 -1.454512,-1.09036 -3.157776,-2.13029 -5.033786,-2.78689 -3.225145,-1.1275 -6.610941,-0.90829 -9.053553,0.58785 -0.860267,0.52687 -1.615163,1.20248 -2.414971,1.91695 l -0.380033,0.33875 c -0.751443,0.6668 -1.525337,1.31459 -2.314784,1.94338 0.734168,-0.30369 1.46315,-0.61808 2.185222,-0.94128 l 1.191941,-0.53241 -0.316131,1.26657 c -0.613248,2.45816 -4.1821504,12.54162 -7.4867573,13.86813"
       style="fill:#436cac;fill-opacity:1;fill-rule:nonzero;stroke:none;stroke-width:0.172745"
       id="path640" />
    <path
       d="m 25.908477,50.698539 c -0.71862,-2.119578 -0.77908,-4.396156 -0.83263,-6.635094 2.297504,1.872541 4.588098,3.976389 5.602112,6.761194 0.647795,1.777358 0.723801,3.705359 0.792899,5.596733 -0.02595,-0.59925 -1.552975,-0.18088 -3.287333,-2.128384 -0.951826,-1.068764 -1.819003,-2.245668 -2.275048,-3.594449"
       style="fill:#436cac;fill-opacity:1;fill-rule:nonzero;stroke:none;stroke-width:0.172745"
       id="path642" />
    <path
       d="m 23.137649,48.317951 c 0.6167,1.024194 1.288675,2.021618 2.154128,2.812445 0.874086,0.802904 1.919194,1.378491 3.02649,1.989828 0.6357,0.351 1.286947,0.709987 1.910557,1.119554 0.03477,-0.893424 0.141661,-1.774081 0.248752,-2.634335 0.06738,-0.559347 0.136471,-1.119554 0.184851,-1.680971 0.02057,-0.241507 0.04848,-0.488547 0.07776,-0.742794 0.139899,-1.247044 0.285037,-2.527078 -0.347225,-3.948939 -0.12609,0.765267 -0.253943,1.447431 -0.331654,1.658691 -0.264275,0.721907 -0.412841,1.459511 -0.570054,2.238248 l -0.04848,0.240127 c -0.03085,0.15601 -0.05181,0.28881 -0.06909,0.40422 -0.0639,0.388657 -0.122662,0.757144 -0.48022,0.979804 -0.392128,0.241657 -0.851634,0.10191 -1.297317,-0.0362 -0.630514,-0.19366 -1.205755,-0.636897 -1.713626,-1.027654 -0.219372,-0.16737 -0.43184,-0.33341 -0.637428,-0.464837 -0.787719,-0.507527 -1.483879,-0.808447 -2.107488,-0.906907 z m 8.450676,8.604731 -1.124567,-0.93663 C 29.641489,55.301812 28.701757,54.782195 27.705019,54.233038 26.580452,53.612891 25.419605,52.971847 24.433233,52.06839 23.165286,50.909106 22.318837,49.448215 21.498301,48.035174 L 21.06127,47.283387 21.911177,47.09648 c 1.190212,-0.26584 2.508252,0.0817 4.023224,1.059444 v 0 c 0.233181,0.151847 0.475029,0.336697 0.722072,0.527047 0.443935,0.340117 0.903457,0.694254 1.31286,0.819834 0.05876,0.0176 0.107091,0.0328 0.152043,0.045 0.02057,-0.12281 0.04309,-0.26584 0.076,-0.429977 l 0.04848,-0.23871 c 0.158898,-0.792894 0.324749,-1.611531 0.621881,-2.425145 0.06219,-0.19176 0.307464,-1.535871 0.526871,-3.112852 l 0.207277,-1.470394 0.920732,1.164634 c 1.917466,2.421878 1.673899,4.565626 1.480425,6.289784 -0.02742,0.2415 -0.05528,0.47831 -0.07428,0.707727 -0.05009,0.576967 -0.119186,1.150474 -0.190041,1.726061 -0.15547,1.278131 -0.302322,2.483885 -0.233181,3.701899 l 0.0829,1.46159"
       style="fill:#436cac;fill-opacity:1;fill-rule:nonzero;stroke:none;stroke-width:0.172745"
       id="path644" />
    <path
       d="m 43.600995,38.852097 c 0.66853,-2.595316 2.09885,-4.918562 3.51018,-7.196547 1.07793,3.379924 1.99693,6.988736 1.19021,10.445527 -0.51651,2.205938 -1.70154,4.189036 -2.87102,6.130504 0.36794,-0.618244 -1.43724,-1.198491 -1.90192,-4.285603 -0.25394,-1.694441 -0.35242,-3.442782 0.0726,-5.093881"
       style="fill:#436cac;fill-opacity:1;fill-rule:nonzero;stroke:none;stroke-width:0.172745"
       id="path646" />
    <path
       d="m 42.267405,34.389756 c -0.0639,1.523609 -0.0639,3.066217 0.30923,4.522286 0.57869,2.259841 1.7309,5.98057 2.57217,8.698005 l 0.0708,0.226127 c 0.17276,-0.326657 0.35413,-0.673527 0.54242,-1.034564 1.05374,-2.017478 2.24741,-4.303046 3.21133,-5.535227 0.17794,-0.22804 0.36622,-0.45535 0.56141,-0.690977 1.0382,-1.255684 2.10577,-2.545916 2.31997,-4.649946 -0.71689,0.790827 -1.43206,1.547965 -1.67217,1.727449 -0.74108,0.552784 -1.37159,1.193664 -2.03839,1.872553 l -0.21766,0.221282 c -0.13476,0.136275 -0.24527,0.259134 -0.33856,0.362405 -0.31094,0.340807 -0.61843,0.622227 -1.0261,0.627577 -0.45951,-0.0108 -0.76871,-0.34081 -1.18503,-0.841436 -0.4906,-0.589063 -0.77217,-1.39958 -1.02265,-2.114744 -0.11057,-0.314564 -0.21766,-0.621533 -0.33684,-0.892742 v 0 c -0.51653,-1.15738 -1.0935,-1.985344 -1.74993,-2.498048 z m 2.6119,16.65962 -0.94491,-3.062742 c -0.84472,-2.729525 -2.00384,-6.467884 -2.58944,-8.758128 -0.504418,-1.974987 -0.399036,-3.98384 -0.295373,-5.928599 l 0.04505,-0.869077 0.813623,0.30766 c 1.33532,0.504071 2.40461,1.693074 3.26834,3.631096 l 0.002,0.0012 c 0.13299,0.301099 0.25394,0.641057 0.37484,0.992072 0.22456,0.642267 0.45779,1.305608 0.80153,1.720712 0.0916,0.108462 0.16238,0.191559 0.21766,0.25169 0.026,-0.02791 0.0501,-0.05543 0.0743,-0.08104 0.10537,-0.116101 0.22804,-0.249096 0.37484,-0.400795 l 0.21594,-0.219373 c 0.67198,-0.682169 1.36468,-1.388695 2.18523,-2.000043 0.18827,-0.147195 1.31804,-1.338769 2.58598,-2.791552 l 0.97601,-1.121462 0.13647,1.480425 c 0.33166,3.63092 -1.29731,5.600731 -2.60672,7.18445 -0.18656,0.22456 -0.36793,0.44604 -0.53896,0.665237 -0.89309,1.138384 -2.10921,3.467142 -3.08695,5.33951 -0.48193,0.923834 -0.92591,1.772011 -1.28003,2.390778 l -0.72899,1.267941"
       style="fill:#436cac;fill-opacity:1;fill-rule:nonzero;stroke:none;stroke-width:0.172745"
       id="path648" />
    <path
       d="m 118.87625,57.752032 c 5.11497,-0.80361 10.03993,-4.308598 11.31651,-9.324911 0.9691,-3.807789 -0.21246,-7.813195 -0.0259,-11.736404 4.14069,5.31189 5.04588,12.955808 2.26123,19.088215 3.71574,-0.1539 7.31747,-2.112661 9.46469,-5.149323 -0.10709,4.646643 -4.75912,8.075793 -9.3524,8.787163 -4.59329,0.71188 -9.53725,0.49785 -14.15126,-0.0601 -5.1668,-0.62551 -8.86354,-0.98448 -14.68676,0.59787 h -0.002 c 2.22841,-0.77943 4.85931,-1.57423 6.33283,-1.72279 2.93838,-0.29884 5.92514,-0.022 8.8428,-0.47973"
       style="fill:#436cac;fill-opacity:1;fill-rule:nonzero;stroke:none;stroke-width:0.172745"
       id="path650" />
    <path
       d="m 158.71811,62.108472 c 3.62246,-3.08522 8.56296,-4.56236 13.2858,-3.9752 4.72112,0.58768 9.14857,3.23223 11.90558,7.1088 -2.51171,-0.64106 -5.02515,-1.28332 -7.53686,-1.92645 1.24376,6.90098 7.30711,12.6501 14.26527,13.52056 -4.10269,0.61687 -8.2382,-1.48854 -11.08676,-4.50484 -2.84857,-3.01629 -4.63993,-6.85313 -6.36047,-10.62916 -3.58618,-0.62896 -7.34683,-1.24894 -10.80691,-0.11194 -1.69809,0.55797 -4.83513,0.84818 -7.52822,2.57563 l 3.86257,-2.0574"
       style="fill:#436cac;fill-opacity:1;fill-rule:nonzero;stroke:none;stroke-width:0.172745"
       id="path652" />
    <path
       d="m 100.94188,57.689322 c 1.67735,-1.41098 3.90577,-2.08987 6.0167,-2.51361 2.55317,-0.514257 5.1858,-0.713264 7.64396,-1.576981 2.94012,-1.033184 5.94243,-3.498069 6.05816,-6.836861 0.28676,-8.330233 -12.23206,-7.60747 -11.36488,-0.658667 -0.32475,-2.599285 -0.0274,-6.108054 2.11267,-8.039338 2.54453,-2.295609 7.69233,-2.300961 10.15049,0.07291 2.47715,2.390781 3.619,6.1547 3.05067,9.525282 -0.63225,3.748366 -3.38061,7.349738 -7.14645,8.166815 -3.05932,0.66334 -6.25164,0.48042 -9.34377,1.15584 -2.41152,0.52842 -6.41574,1.68564 -7.73551,4.01303 -1.121114,1.97776 -1.774081,2.17952 0.0795,1.69981 14.5693,-3.77482 29.36489,-0.19919 29.36489,-0.19919 8.08618,2.4604 17.26757,-1.24826 19.686,-9.347048 0.25737,1.825911 0.51478,3.649918 0.77217,5.475828 2.88311,-2.51689 4.57773,-6.337472 4.50864,-10.164261 1.9952,4.258646 0.0518,9.625821 -3.60346,12.582691 -3.65528,2.95964 -8.60096,3.86448 -13.29962,3.70728 -4.70039,-0.15718 -9.31095,-1.26587 -13.9716,-1.88793 -8.13801,-1.08656 -17.19847,-1.36779 -25.193091,0.50805 0.381737,-1.79154 0.746244,-4.44818 2.214571,-5.68366"
       style="fill:#436cac;fill-opacity:1;fill-rule:nonzero;stroke:none;stroke-width:0.172745"
       id="path654" />
    <path
       d="m 134.87573,63.084842 2.75873,-1.53104 c 2.89175,-1.60272 2.89175,-1.60272 3.45145,-3.01232 0.48541,-1.21595 0.31613,-3.32189 0.18827,-4.873301 -1.4286,0.622217 -2.79328,0.827267 -4.443,0.17829 l -0.3766,-0.14857 -0.024,-0.406127 c -0.27123,-4.763933 -2.00385,-9.359256 -4.91805,-13.115059 -0.14509,3.427933 -1.12112,6.856385 -2.81401,9.822727 l -1.27659,2.236868 0.0881,-2.573535 c 0.12957,-3.703969 -1.19885,-7.251958 -3.5499,-9.496251 -2.09021,-1.993305 -5.29982,-3.010772 -7.82016,-2.466968 -2.51689,0.542589 -3.64492,2.842169 -4.76085,5.567555 l -1.17639,-0.481787 c 0.96737,-2.362971 2.29232,-5.600035 5.66948,-6.327464 2.89693,-0.62672 6.58677,0.519613 8.96546,2.789656 2.06603,1.969635 3.41862,4.828029 3.82457,7.949511 1.15221,-2.751632 1.70672,-5.781393 1.58062,-8.742409 l -0.076,-1.763901 1.1833,1.311827 c 3.67947,4.081783 5.91478,9.319383 6.32246,14.793273 1.1954,0.373127 2.25778,0.1781 3.86776,-0.668167 l 0.86372,-0.454657 0.0657,0.974274 c 0.0191,0.27138 0.0431,0.566777 0.0674,0.879264 0.14685,1.774081 0.32994,3.981941 -0.26947,5.486721 -0.21937,0.54915 -0.38865,0.94336 -0.60288,1.27123 2.09367,-1.08501 3.96277,-2.72954 5.79213,-4.33953 0.64607,-0.56816 1.2835,-1.129577 1.92092,-1.656614 l 0.7169,-0.592337 0.29022,0.884614 c 0.0622,0.18275 1.45279,4.523667 -0.97255,7.409027 l -0.97255,-0.81708 c 1.36641,-1.6276 1.20057,-3.95223 0.96564,-5.24108 -0.36794,0.31578 -0.73762,0.64106 -1.10902,0.96893 -2.87102,2.5257 -6.12381,5.38825 -10.2835,5.8424 l -3.13704,0.34203"
       style="fill:#436cac;fill-opacity:1;fill-rule:nonzero;stroke:none;stroke-width:0.172745"
       id="path656" />
    <path
       d="m 184.5711,76.038622 c -3.30634,-1.3253 -6.87525,-11.40997 -7.48849,-13.86813 l -0.31437,-1.26656 1.19021,0.5324 c 0.72208,0.32318 1.45106,0.6357 2.18522,0.94128 -0.78944,-0.62879 -1.56161,-1.27658 -2.31305,-1.94338 l -0.38003,-0.33875 c -0.79981,-0.71447 -1.5547,-1.39008 -2.4167,-1.91695 -2.44261,-1.49614 -5.82669,-1.71535 -9.05183,-0.58785 -1.87601,0.6566 -3.581,1.69653 -5.03379,2.78689 0.90865,-0.33738 1.82246,-0.65522 2.73974,-0.95009 l 0.39041,1.20921 c -2.12649,0.68562 -4.23743,1.48716 -6.27582,2.38336 l -3.3737,1.48595 2.68272,-2.52915 c 1.90365,-1.79638 4.85068,-4.32744 8.45068,-5.58657 3.58273,-1.25033 7.37102,-0.98793 10.13494,0.70307 0.96046,0.58785 1.79309,1.33342 2.59981,2.05411 l 0.37655,0.33528 c 1.90711,1.68909 3.94895,3.26263 6.06853,4.67637 l 4.24434,2.82593 -4.80749,-1.69842 c -1.8501,-0.65246 -3.69328,-1.37315 -5.49501,-2.14515 1.22994,3.90904 4.24952,10.87083 6.36046,11.71694 l -0.47331,1.18019"
       style="fill:#436cac;fill-opacity:1;fill-rule:nonzero;stroke:none;stroke-width:0.172745"
       id="path658" />
    <path
       d="m 164.42733,50.698539 c 0.71689,-2.119578 0.77735,-4.396156 0.8309,-6.635094 -2.2975,1.872541 -4.58638,3.976389 -5.60039,6.761194 -0.64779,1.777358 -0.7238,3.705359 -0.7929,5.596733 0.024,-0.59925 1.55125,-0.18088 3.28561,-2.128384 0.95182,-1.068764 1.819,-2.245668 2.27678,-3.594449"
       style="fill:#436cac;fill-opacity:1;fill-rule:nonzero;stroke:none;stroke-width:0.172745"
       id="path660" />
    <path
       d="m 159.94287,45.231359 c -0.63224,1.423241 -0.48712,2.703275 -0.34722,3.950319 0.0274,0.254277 0.0553,0.501297 0.076,0.742794 0.0485,0.561417 0.11748,1.121624 0.18657,1.680971 0.10538,0.860254 0.21247,1.740911 0.24875,2.634335 0.62361,-0.409557 1.27313,-0.768534 1.90883,-1.119554 1.1073,-0.611337 2.1524,-1.186924 3.02822,-1.987758 0.86545,-0.792897 1.53743,-1.790321 2.1524,-2.814515 -0.62361,0.0985 -1.31977,0.39938 -2.10576,0.906907 v 0 c -0.20556,0.131477 -0.41975,0.297467 -0.63743,0.464837 -0.50787,0.390757 -1.08311,0.834004 -1.71363,1.027654 -0.4457,0.13838 -0.90691,0.278127 -1.29731,0.0362 -0.35932,-0.22265 -0.41803,-0.591137 -0.48022,-0.979804 -0.0191,-0.11542 -0.0397,-0.24822 -0.0708,-0.40422 l -0.0501,-0.241507 c -0.15376,-0.779427 -0.30232,-1.514961 -0.5666,-2.236858 -0.0795,-0.218 -0.20904,-0.917794 -0.33166,-1.660071 z m -1.19712,11.691323 0.0847,-1.4616 c 0.0691,-1.218014 -0.0795,-2.423768 -0.23495,-3.701899 -0.0691,-0.575587 -0.13995,-1.149094 -0.18828,-1.726061 -0.0206,-0.229407 -0.0485,-0.466207 -0.0743,-0.707727 -0.19518,-1.724158 -0.43703,-3.867906 1.4787,-6.289784 l 0.92245,-1.164634 0.20557,1.470394 c 0.22113,1.576981 0.46469,2.919032 0.53032,3.116132 0.29537,0.810334 0.45951,1.628971 0.61843,2.420485 l 0.0485,0.24013 c 0.0328,0.164087 0.057,0.307117 0.076,0.429977 0.0451,-0.0122 0.095,-0.0274 0.15376,-0.0451 0.40941,-0.1256 0.8689,-0.479727 1.31113,-0.819834 0.24875,-0.19039 0.48889,-0.37519 0.72208,-0.527047 h 0.002 c 1.51325,-0.976347 2.82956,-1.325294 4.02323,-1.059444 l 0.84818,0.186907 -0.43532,0.751787 c -0.82054,1.413041 -1.66872,2.873932 -2.93494,4.035116 -0.98637,0.901557 -2.14894,1.542601 -3.27178,2.162748 -0.99674,0.549157 -1.93647,1.068774 -2.76046,1.753014 l -1.12457,0.93663"
       style="fill:#436cac;fill-opacity:1;fill-rule:nonzero;stroke:none;stroke-width:0.172745"
       id="path662" />
    <path
       d="m 146.73481,38.852097 c -0.66853,-2.595316 -2.10058,-4.918562 -3.51191,-7.196547 -1.0762,3.379924 -1.9952,6.988736 -1.18848,10.445527 0.51478,2.205938 1.70153,4.189036 2.87102,6.130504 -0.36966,-0.618244 1.4355,-1.198491 1.90019,-4.285603 0.25566,-1.694441 0.35242,-3.442782 -0.0708,-5.093881"
       style="fill:#436cac;fill-opacity:1;fill-rule:nonzero;stroke:none;stroke-width:0.172745"
       id="path664" />
    <path
       d="m 138.48106,35.925455 c 0.21423,2.10403 1.28177,3.396162 2.32169,4.652021 0.19347,0.233567 0.38175,0.460877 0.55969,0.688897 0.96392,1.230111 2.15585,3.515689 3.20787,5.531947 0.19004,0.362257 0.37313,0.711197 0.54415,1.037844 l 0.0708,-0.226127 c 0.84127,-2.717425 1.9952,-6.438164 2.57217,-8.698 0.37313,-1.454169 0.37485,-2.996606 0.31094,-4.522286 -0.65642,0.512704 -1.23339,1.338768 -1.7499,2.498063 -0.1209,0.271228 -0.22628,0.578173 -0.33685,0.892742 -0.25046,0.715164 -0.53378,1.525681 -1.02265,2.114744 -0.41803,0.500616 -0.72725,0.830556 -1.18502,0.841436 -0.44913,-0.005 -0.7169,-0.28675 -1.02611,-0.627577 -0.095,-0.103321 -0.20556,-0.22613 -0.33856,-0.362405 l -0.22627,-0.22804 c -0.66507,-0.677503 -1.29214,-1.314417 -2.02976,-1.865815 -0.24184,-0.179464 -0.95527,-0.936622 -1.67217,-1.727449 z m 6.9737,15.123921 -0.72898,-1.267941 c -0.35585,-0.620147 -0.79808,-1.468324 -1.28176,-2.394058 -0.97601,-1.871158 -2.19041,-4.197846 -3.08177,-5.33623 -0.17276,-0.219217 -0.35413,-0.439277 -0.53896,-0.663337 -1.31114,-1.584235 -2.94012,-3.553351 -2.60845,-7.186347 l 0.13475,-1.480425 0.97601,1.121462 c 1.26795,1.452784 2.3977,2.644377 2.58944,2.792938 0.81364,0.607886 1.50634,1.311131 2.17487,1.99192 l 0.22456,0.226129 c 0.14856,0.151651 0.26946,0.286751 0.37484,0.400796 0.0225,0.02546 0.0485,0.05323 0.0743,0.08104 0.0553,-0.06219 0.12609,-0.143229 0.21766,-0.253747 0.34375,-0.413037 0.57524,-1.076374 0.79981,-1.71864 0.12266,-0.350996 0.24185,-0.690979 0.37484,-0.992072 l 0.002,-0.0012 c 0.86545,-1.938022 1.93474,-3.127025 3.27006,-3.631097 l 0.81362,-0.307659 0.0451,0.869076 c 0.10367,1.946836 0.20728,3.958965 -0.29713,5.9286 -0.5856,2.290246 -1.74299,6.028595 -2.58944,8.75812 l -0.94492,3.062752"
       style="fill:#436cac;fill-opacity:1;fill-rule:nonzero;stroke:none;stroke-width:0.172745"
       id="path666" />
    <path
       d="m 118.87625,128.42343 c 5.11497,0.80309 10.03993,4.30653 11.31651,9.32494 0.9691,3.80506 -0.21246,7.81261 -0.0259,11.73445 4.14069,-5.31056 5.04588,-12.95455 2.26123,-19.08699 3.71574,0.1539 7.31747,2.11284 9.46469,5.15004 -0.10709,-4.64735 -4.75912,-8.07582 -9.3524,-8.7877 -4.59329,-0.71188 -9.53725,-0.49733 -14.15126,0.0599 -5.1668,0.62551 -8.86354,0.98516 -14.68676,-0.59718 h -0.002 c 2.22841,0.77735 4.85931,1.57163 6.33283,1.72209 2.93838,0.29885 5.92514,0.0225 8.8428,0.48042"
       style="fill:#436cac;fill-opacity:1;fill-rule:nonzero;stroke:none;stroke-width:0.172745"
       id="path668" />
    <path
       d="m 158.71811,124.06646 c 3.62246,3.08367 8.56296,4.56219 13.2858,3.97503 4.72112,-0.58768 9.14857,-3.23222 11.90558,-7.10879 -2.51171,0.64105 -5.02515,1.28418 -7.53686,1.92455 1.24376,-6.89908 7.30711,-12.6482 14.26527,-13.51867 -4.10269,-0.61687 -8.2382,1.48855 -11.08676,4.50484 -2.84857,3.0163 -4.63993,6.85313 -6.36047,10.62709 -3.58618,0.63104 -7.34683,1.24912 -10.80691,0.11419 -1.69809,-0.55814 -4.83513,-0.84956 -7.52822,-2.57701 l 3.86257,2.05877"
       style="fill:#436cac;fill-opacity:1;fill-rule:nonzero;stroke:none;stroke-width:0.172745"
       id="path670" />
    <path
       d="m 100.94188,128.48355 c 1.67735,1.41167 3.90577,2.09038 6.0167,2.5155 2.55317,0.51289 5.1858,0.71137 7.64396,1.57509 2.94012,1.03509 5.94243,3.49999 6.05816,6.8388 0.28676,8.33029 -12.23206,7.60625 -11.36488,0.65867 -0.32475,2.59993 -0.0274,6.10814 2.11267,8.03735 2.54453,2.29765 7.69233,2.30303 10.15049,-0.0709 2.47715,-2.39211 3.619,-6.15471 3.05067,-9.52655 -0.63225,-3.74856 -3.38061,-7.35046 -7.14645,-8.16565 -3.05932,-0.66334 -6.25164,-0.48041 -9.34377,-1.15722 -2.41152,-0.52704 -6.41574,-1.68426 -7.73551,-4.01303 -1.121114,-1.97775 -1.774081,-2.17814 0.0795,-1.69843 14.5693,3.77275 29.36489,0.19915 29.36489,0.19915 8.08618,-2.46023 17.26757,1.24895 19.686,9.34705 0.25737,-1.82591 0.51478,-3.65182 0.77217,-5.47791 2.88311,2.51706 4.57773,6.33956 4.50864,10.16638 1.9952,-4.25868 0.0518,-9.62586 -3.60346,-12.5848 -3.65528,-2.95757 -8.60096,-3.86448 -13.29962,-3.70521 -4.70039,0.15719 -9.31095,1.26587 -13.9716,1.8881 -8.13801,1.08639 -17.19847,1.36641 -25.193091,-0.50821 0.381737,1.79153 0.746244,4.44817 2.214571,5.68175"
       style="fill:#436cac;fill-opacity:1;fill-rule:nonzero;stroke:none;stroke-width:0.172745"
       id="path672" />
    <path
       d="m 117.25591,151.51392 c -0.56834,0 -1.12285,-0.0553 -1.65145,-0.16938 -3.37716,-0.72741 -4.70211,-3.96435 -5.66948,-6.32947 l 1.17639,-0.47978 c 1.11593,2.7241 2.24395,5.02309 4.76085,5.56763 2.51862,0.54389 5.72994,-0.47503 7.82016,-2.46902 2.35105,-2.24164 3.67773,-5.79168 3.5499,-9.49549 l -0.0881,-2.57234 1.27658,2.23549 c 1.6929,2.96573 2.66891,6.39701 2.81402,9.82423 2.9142,-3.75584 4.64683,-8.35037 4.91804,-13.11502 l 0.024,-0.40628 0.3766,-0.14837 c 1.64972,-0.65125 3.01786,-0.4455 4.443,0.17809 0.12785,-1.55141 0.29713,-3.65873 -0.18828,-4.87468 -0.55969,-1.4096 -0.55969,-1.4096 -3.45144,-3.01094 l -2.75873,-1.53104 3.13704,0.34218 c 4.16143,0.45466 7.41421,3.3186 10.28523,5.8443 0.37141,0.32652 0.73762,0.65108 1.10557,0.96548 0.23318,-1.29213 0.39731,-3.62073 -0.96392,-5.24091 l 0.97255,-0.81725 c 2.42534,2.88673 1.03475,7.22764 0.97256,7.41058 l -0.29023,0.88462 -0.71689,-0.59459 c -0.6357,-0.52497 -1.27313,-1.08639 -1.9192,-1.65247 -1.83109,-1.61206 -3.70019,-3.25659 -5.79386,-4.3416 0.21423,0.32857 0.38351,0.72207 0.60288,1.27123 0.59943,1.50357 0.41632,3.71281 0.26947,5.4881 -0.024,0.30972 -0.0485,0.60668 -0.0674,0.87582 l -0.0657,0.97445 -0.86373,-0.45416 c -1.60825,-0.8449 -2.6689,-1.03993 -3.86775,-0.66662 -0.4077,5.47378 -2.643,10.71145 -6.32246,14.7939 l -1.18331,1.31111 0.076,-1.76592 c 0.12609,-2.96027 -0.42841,-5.9887 -1.58062,-8.74047 -0.40593,3.11953 -1.75854,5.97994 -3.82457,7.94963 -1.9451,1.85364 -4.7643,2.95893 -7.31401,2.95893"
       style="fill:#436cac;fill-opacity:1;fill-rule:nonzero;stroke:none;stroke-width:0.172745"
       id="path674" />
    <path
       d="m 170.07263,130.5672 c -1.4787,0 -3.01267,-0.25914 -4.51037,-0.78271 -3.6,-1.25776 -6.54703,-3.7902 -8.45068,-5.58657 l -2.68099,-2.52898 3.37197,1.48577 c 2.03839,0.8962 4.14933,1.69774 6.27582,2.38198 l -0.39041,1.2106 c -0.91728,-0.29488 -1.83282,-0.61273 -2.74146,-0.9501 1.45451,1.09054 3.15778,2.13029 5.03551,2.78828 3.22687,1.12819 6.60922,0.9069 9.05183,-0.58906 0.86372,-0.52843 1.62034,-1.20594 2.42188,-1.92248 l 0.37484,-0.33342 c 0.75144,-0.66662 1.52534,-1.31649 2.31478,-1.94338 -0.73589,0.30438 -1.46487,0.6167 -2.18695,0.93991 l -1.19021,0.53378 0.31437,-1.26795 c 0.61325,-2.45678 4.18215,-12.54144 7.48849,-13.86674 l 0.47332,1.18019 c -2.11094,0.8461 -5.13052,7.80789 -6.36047,11.71694 1.80173,-0.77321 3.64492,-1.492 5.49501,-2.14722 l 4.80749,-1.69774 -4.24434,2.828 c -2.11957,1.41098 -4.16142,2.98469 -6.06853,4.67431 l -0.36965,0.33131 c -0.80844,0.72276 -1.64453,1.4704 -2.60672,2.05946 -1.60825,0.98447 -3.56372,1.48578 -5.62457,1.48578"
       style="fill:#436cac;fill-opacity:1;fill-rule:nonzero;stroke:none;stroke-width:0.172745"
       id="path676" />
    <path
       d="m 164.42733,135.47505 c 0.71689,2.1194 0.77735,4.39756 0.8309,6.63507 -2.2975,-1.87112 -4.58638,-3.97515 -5.60039,-6.75997 -0.64779,-1.77944 -0.7238,-3.70659 -0.7929,-5.59676 0.024,0.59926 1.55125,0.18157 3.28561,2.12839 0.95182,1.06739 1.819,2.24569 2.27678,3.59327"
       style="fill:#436cac;fill-opacity:1;fill-rule:nonzero;stroke:none;stroke-width:0.172745"
       id="path678" />
    <path
       d="m 160.10698,131.93499 c -0.0362,0.89153 -0.14337,1.77271 -0.24875,2.63435 -0.0691,0.56022 -0.13819,1.11749 -0.18657,1.67891 -0.0206,0.24219 -0.0485,0.4906 -0.076,0.74298 -0.13995,1.24894 -0.28504,2.52916 0.34551,3.95287 0.12437,-0.745 0.25394,-1.44479 0.33513,-1.66401 0.26256,-0.72 0.41113,-1.45762 0.5666,-2.23825 l 0.0485,-0.23685 c 0.0309,-0.15601 0.0518,-0.28881 0.0708,-0.40285 0.0622,-0.39008 0.1209,-0.75852 0.48022,-0.98119 0.39213,-0.24356 0.85163,-0.1019 1.29732,0.0362 0.62879,0.19156 1.20403,0.63363 1.71017,1.02438 0.22114,0.16928 0.4336,0.33323 0.63916,0.46833 h 0.002 c 0.78599,0.50734 1.48214,0.80826 2.10575,0.9069 -0.61497,-1.02437 -1.28695,-2.02301 -2.15239,-2.81384 -0.87582,-0.8017 -1.92266,-1.37867 -3.02995,-1.99071 -0.63397,-0.35016 -1.28522,-0.7079 -1.9071,-1.11748 z m 0.62706,12.36885 -0.92245,-1.16468 c -1.91574,-2.4218 -1.6739,-4.56697 -1.4787,-6.28958 0.026,-0.24166 0.0536,-0.47851 0.0743,-0.70999 0.0485,-0.57696 0.11919,-1.15048 0.18828,-1.72399 0.15547,-1.27814 0.30404,-2.48389 0.23495,-3.70192 l -0.0847,-1.45952 1.12457,0.93455 c 0.82226,0.68424 1.76199,1.20248 2.75873,1.7518 1.12457,0.61809 2.28714,1.26104 3.27352,2.16398 1.26622,1.15929 2.11439,2.62088 2.93493,4.03393 l 0.43532,0.75162 -0.84818,0.18828 c -1.19539,0.26931 -2.51171,-0.0831 -4.02323,-1.06083 v 0 c -0.23494,-0.15048 -0.47679,-0.33528 -0.72552,-0.52687 -0.44394,-0.34013 -0.90173,-0.69306 -1.30941,-0.81864 -0.0587,-0.0196 -0.1088,-0.0328 -0.15375,-0.0465 -0.0191,0.12403 -0.0431,0.26584 -0.076,0.42978 l -0.0465,0.23686 c -0.15895,0.7929 -0.32304,1.61343 -0.62016,2.42654 -0.0657,0.19572 -0.31094,1.5358 -0.53032,3.11345 l -0.20556,1.4717"
       style="fill:#436cac;fill-opacity:1;fill-rule:nonzero;stroke:none;stroke-width:0.172745"
       id="path680" />
    <path
       d="m 146.73481,147.32149 c -0.66853,2.59656 -2.10058,4.91985 -3.51191,7.1986 -1.0762,-3.38069 -1.9952,-6.98943 -1.18848,-10.44634 0.51478,-2.20722 1.70153,-4.19043 2.87102,-6.13243 -0.36966,0.61877 1.4355,1.19903 1.90019,4.28756 0.25566,1.69439 0.35242,3.44276 -0.0708,5.09261"
       style="fill:#436cac;fill-opacity:1;fill-rule:nonzero;stroke:none;stroke-width:0.172745"
       id="path682" />
    <path
       d="m 146.31849,149.28579 c 0.51651,1.15927 1.09348,1.98454 1.7499,2.49804 0.0639,-1.52366 0.0622,-3.06622 -0.31094,-4.52308 -0.57697,-2.2558 -1.72917,-5.97521 -2.57044,-8.68856 l -0.0726,-0.23475 c -0.17104,0.32788 -0.35413,0.67474 -0.54242,1.03647 -1.05374,2.01759 -2.24568,4.3024 -3.20959,5.53455 -0.17795,0.22809 -0.36794,0.45618 -0.56142,0.69098 -1.0382,1.25375 -2.10576,2.54462 -2.31997,4.6486 0.71862,-0.79152 1.43033,-1.54593 1.67217,-1.72745 0.7359,-0.54927 1.36296,-1.18492 2.0263,-1.85902 l 0.22975,-0.23485 c 0.133,-0.13495 0.24357,-0.25708 0.33856,-0.36099 0.30923,-0.34213 0.57697,-0.69097 1.02611,-0.62552 0.45779,0.009 0.76698,0.33669 1.18329,0.83942 0.4906,0.58774 0.7739,1.3995 1.02438,2.11275 0.11057,0.31648 0.21595,0.62351 0.33685,0.89342 z m 2.92284,4.45695 -0.81363,-0.30634 c -1.33531,-0.50405 -2.40461,-1.69236 -3.27005,-3.63236 h -0.002 c -0.133,-0.30095 -0.25223,-0.64105 -0.37485,-0.99193 -0.22456,-0.6424 -0.45603,-1.30773 -0.7998,-1.72002 -0.0916,-0.10935 -0.16238,-0.19029 -0.21766,-0.25238 -0.0259,0.0279 -0.0518,0.0553 -0.0743,0.081 -0.10538,0.11405 -0.22628,0.249 -0.37485,0.39879 l -0.22975,0.2321 c -0.66679,0.67884 -1.35777,1.37994 -2.1714,1.98791 -0.19004,0.14847 -1.3215,1.3408 -2.58772,2.79362 l -0.97601,1.12082 -0.13475,-1.48048 c -0.33166,-3.63305 1.29731,-5.60206 2.60672,-7.18646 0.18656,-0.2227 0.36794,-0.44334 0.54069,-0.66128 0.89136,-1.14039 2.10748,-3.46839 3.08349,-5.33949 0.48199,-0.92592 0.92419,-1.77409 1.28004,-2.39217 l 0.72898,-1.27002 0.94665,3.07175 c 0.84645,2.72739 2.00211,6.46233 2.58771,8.75052 0.50442,1.96971 0.40075,3.98191 0.29714,5.92731 l -0.0451,0.86913"
       style="fill:#436cac;fill-opacity:1;fill-rule:nonzero;stroke:none;stroke-width:0.172745"
       id="path684" />
    <path
       d="m 71.457825,128.42343 c -5.11498,0.80309 -10.03993,4.30653 -11.31651,9.32494 -0.9691,3.80506 0.21247,7.81261 0.0274,11.73445 -4.1407,-5.31056 -5.04588,-12.95455 -2.26123,-19.08699 -3.71747,0.1539 -7.31747,2.11284 -9.46469,5.15004 0.10538,-4.64735 4.75739,-8.07582 9.3524,-8.7877 4.59329,-0.71188 9.53551,-0.49733 14.15126,0.0599 5.16679,0.62551 8.86354,0.98516 14.68676,-0.59718 v 0 c -2.22841,0.77735 -4.85931,1.57163 -6.3311,1.72209 -2.94011,0.29885 -5.92514,0.0225 -8.84453,0.48042"
       style="fill:#436cac;fill-opacity:1;fill-rule:nonzero;stroke:none;stroke-width:0.172745"
       id="path686" />
    <path
       d="m 31.61769,124.06646 c -3.622458,3.08367 -8.564686,4.56219 -13.285803,3.97503 -4.721116,-0.58768 -9.1502914,-3.23222 -11.9072949,-7.10879 2.5134318,0.64105 5.0251409,1.28418 7.5368509,1.92455 -1.242034,-6.89908 -7.3071029,-12.6482 -14.26353361,-13.51867 4.10268821,-0.61687 8.23647281,1.48855 11.08502961,4.50484 2.848564,3.0163 4.639925,6.85313 6.360465,10.62709 3.586183,0.63104 7.348565,1.24912 10.806915,0.11419 1.699807,-0.55814 4.836856,-0.84956 7.529944,-2.57701 l -3.862573,2.05877"
       style="fill:#436cac;fill-opacity:1;fill-rule:nonzero;stroke:none;stroke-width:0.172745"
       id="path688" />
    <path
       d="m 89.392199,128.48355 c -1.677364,1.41167 -3.904044,2.09038 -6.016704,2.5155 -2.55317,0.51289 -5.1858,0.71137 -7.64223,1.57509 -2.94012,1.03509 -5.94243,3.49999 -6.05817,6.8388 -0.28846,8.33029 12.23206,7.60625 11.36316,0.65867 0.32475,2.59993 0.0274,6.10814 -2.11094,8.03735 -2.54626,2.29765 -7.69233,2.30303 -10.15221,-0.0709 -2.47717,-2.39211 -3.61901,-6.15471 -3.05068,-9.52655 0.63225,-3.74856 3.38234,-7.35046 7.14645,-8.16565 3.06104,-0.66334 6.25336,-0.48041 9.3455,-1.15722 2.41151,-0.52704 6.41574,-1.68426 7.733781,-4.01303 1.12113,-1.97775 1.77583,-2.17814 -0.0795,-1.69843 -14.569303,3.77275 -29.364893,0.19915 -29.364893,0.19915 -8.08619,-2.46023 -17.26757,1.24895 -19.686001,9.34705 -0.25737,-1.82591 -0.514775,-3.65182 -0.770437,-5.47791 -2.883115,2.51706 -4.579465,6.33956 -4.508639,10.16638 -1.995206,-4.25868 -0.05181,-9.62586 3.603454,-12.5848 3.655283,-2.95757 8.599233,-3.86448 13.299623,-3.70521 4.70039,0.15719 9.30922,1.26587 13.9716,1.8881 8.13801,1.08639 17.19847,1.36641 25.191383,-0.50821 -0.38004,1.79153 -0.74626,4.44817 -2.214597,5.68175"
       style="fill:#436cac;fill-opacity:1;fill-rule:nonzero;stroke:none;stroke-width:0.172745"
       id="path690" />
    <path
       d="m 73.079895,151.51392 c -2.54971,0 -5.36891,-1.10529 -7.31401,-2.95893 -2.06603,-1.96969 -3.42035,-4.8301 -3.8263,-7.94963 -1.15048,2.74974 -1.70499,5.7802 -1.57889,8.74251 l 0.0743,1.76186 -1.18158,-1.30909 c -3.67946,-4.08245 -5.91478,-9.32012 -6.32245,-14.7939 -1.19885,-0.37333 -2.25951,-0.17829 -3.86776,0.66661 l -0.86546,0.45623 -0.0656,-0.97652 c -0.0171,-0.2726 -0.0416,-0.57352 -0.0691,-0.88601 -0.14338,-1.77185 -0.32652,-3.97642 0.27294,-5.47792 0.21766,-0.54915 0.38694,-0.94266 0.60288,-1.27122 -2.09367,1.08501 -3.9645,2.72954 -5.79387,4.34159 -0.64606,0.56816 -1.28349,1.12751 -1.91919,1.65248 l -0.716892,0.59459 -0.291942,-0.88463 c -0.06047,-0.18294 -1.452783,-4.52384 0.972554,-7.41058 l 0.97428,0.81726 c -1.361227,1.62017 -1.198848,3.94877 -0.963914,5.2409 0.366224,-0.31442 0.734164,-0.63898 1.105564,-0.96547 2.87102,-2.5257 6.12381,-5.38964 10.28522,-5.8443 l 3.13878,-0.34219 -2.76046,1.53104 c -2.89175,1.60135 -2.89175,1.60135 -3.45317,3.01095 -0.4837,1.21594 -0.31442,3.32326 -0.18656,4.87468 1.42687,-0.62361 2.79155,-0.82935 4.44127,-0.1781 l 0.37831,0.14837 0.0225,0.40628 c 0.27123,4.76465 2.00557,9.35918 4.91977,13.11503 0.14509,-3.42722 1.12112,-6.85985 2.81229,-9.82424 l 1.27658,-2.23549 -0.0881,2.57234 c -0.12785,3.70381 1.19884,7.25385 3.55163,9.49549 2.09021,1.99535 5.30499,3.01292 7.82016,2.46903 2.51689,-0.54454 3.64491,-2.84354 4.76085,-5.56764 l 1.17639,0.47978 c -0.96737,2.36512 -2.29233,5.60207 -5.67121,6.32948 -0.5286,0.11404 -1.08312,0.16937 -1.64972,0.16937"
       style="fill:#436cac;fill-opacity:1;fill-rule:nonzero;stroke:none;stroke-width:0.172745"
       id="path692" />
    <path
       d="m 20.261448,130.5672 c -2.059117,0 -4.014591,-0.50131 -5.624573,-1.48579 -0.962188,-0.58906 -1.796547,-1.33669 -2.604992,-2.05946 l -0.369652,-0.33131 c -1.9088277,-1.68962 -3.9506735,-3.26332 -6.0702493,-4.6743 l -4.2408864,-2.82662 4.8057601,1.69635 c 1.8466428,0.65332 3.6881009,1.37194 5.4950086,2.14722 -1.231667,-3.90904 -4.2495185,-10.87083 -6.3604613,-11.71693 l 0.473315,-1.1802 c 3.3063299,1.32737 6.8735093,11.40997 7.4867573,13.86675 l 0.316131,1.26794 -1.191941,-0.53378 c -0.722072,-0.32318 -1.451054,-0.63553 -2.185222,-0.9399 0.789447,0.62689 1.563341,1.27675 2.314784,1.94337 l 0.373129,0.33342 c 0.801532,0.71655 1.558155,1.39405 2.42188,1.92248 2.444341,1.49787 5.828408,1.7138 9.053553,0.58906 1.877739,-0.65799 3.581003,-1.69774 5.033786,-2.78828 -0.906909,0.33739 -1.82246,0.65523 -2.741458,0.9501 l -0.388652,-1.2106 c 2.124758,-0.68424 4.235702,-1.48577 6.274092,-2.38197 l 3.373706,-1.48578 -2.681004,2.52899 c -1.905371,1.79637 -4.850674,4.3288 -8.452399,5.58656 -1.497701,0.52359 -3.029948,0.78271 -4.510368,0.78271"
       style="fill:#436cac;fill-opacity:1;fill-rule:nonzero;stroke:none;stroke-width:0.172745"
       id="path694" />
    <path
       d="m 25.908477,135.47505 c -0.71862,2.1194 -0.77908,4.39756 -0.83263,6.63507 2.297504,-1.87112 4.588098,-3.97515 5.602112,-6.75997 0.647795,-1.77944 0.723801,-3.70659 0.792899,-5.59676 -0.02595,0.59926 -1.552975,0.18157 -3.287333,2.12839 -0.951826,1.06739 -1.819003,2.24569 -2.275048,3.59327"
       style="fill:#436cac;fill-opacity:1;fill-rule:nonzero;stroke:none;stroke-width:0.172745"
       id="path696" />
    <path
       d="m 28.402912,135.29004 c 0.171042,0 0.336844,0.0357 0.490595,0.13093 0.357607,0.22266 0.416318,0.59113 0.48022,0.98119 0.01714,0.114 0.03819,0.24684 0.06909,0.40285 l 0.04848,0.23475 c 0.157184,0.7827 0.304036,1.52032 0.568331,2.2424 0.07947,0.21247 0.207277,0.89464 0.333416,1.6599 0.632243,-1.42168 0.487124,-2.7019 0.347226,-3.95084 -0.02938,-0.25238 -0.057,-0.50079 -0.07776,-0.74298 -0.04848,-0.56142 -0.117472,-1.11869 -0.184851,-1.67891 -0.10709,-0.86164 -0.21423,-1.74282 -0.248752,-2.63435 -0.62361,0.40956 -1.273128,0.76733 -1.908833,1.11748 -1.107291,0.61204 -2.154128,1.18901 -3.028214,1.99071 -0.865453,0.79083 -1.537427,1.78947 -2.154128,2.81384 0.62361,-0.0986 1.319769,-0.39957 2.107487,-0.9069 v 0 c 0.207277,-0.1351 0.419794,-0.29905 0.639157,-0.46832 0.507866,-0.39076 1.081383,-0.83281 1.711897,-1.02439 0.269466,-0.0829 0.544146,-0.16736 0.806722,-0.16736 z m 1.198845,9.0138 -0.207278,-1.4717 c -0.219372,-1.57764 -0.464697,-2.9198 -0.528599,-3.1169 -0.297132,-0.80966 -0.46122,-1.63019 -0.620152,-2.42517 l -0.04848,-0.23474 c -0.03281,-0.16395 -0.05528,-0.30575 -0.076,-0.42979 -0.04505,0.0137 -0.09328,0.0269 -0.152042,0.0465 -0.409414,0.1256 -0.867177,0.47851 -1.311132,0.81864 -0.247038,0.19156 -0.490595,0.37641 -0.723801,0.52687 -1.511514,0.97774 -2.826102,1.33014 -4.023224,1.06083 l -0.849906,-0.18828 0.437031,-0.75161 c 0.820535,-1.41305 1.666984,-2.87465 2.934932,-4.03394 0.986372,-0.90293 2.148947,-1.54589 3.273514,-2.16397 0.99501,-0.54933 1.93647,-1.06757 2.75701,-1.75181 l 1.124567,-0.93455 -0.0829,1.45952 c -0.06909,1.21803 0.07776,2.42379 0.233181,3.70193 0.07081,0.57351 0.139948,1.14702 0.190041,1.72399 0.0191,0.23146 0.04652,0.46832 0.07428,0.70998 0.193469,1.72261 0.437031,3.86779 -1.480425,6.28958 l -0.920732,1.16469"
       style="fill:#436cac;fill-opacity:1;fill-rule:nonzero;stroke:none;stroke-width:0.172745"
       id="path698" />
    <path
       d="m 43.600995,147.32149 c 0.66853,2.59656 2.09885,4.91985 3.51018,7.1986 1.07793,-3.38069 1.99693,-6.98943 1.19021,-10.44634 -0.51651,-2.20722 -1.70154,-4.19043 -2.87102,-6.13243 0.36794,0.61877 -1.43724,1.19903 -1.90192,4.28756 -0.25394,1.69439 -0.35242,3.44276 0.0726,5.09261"
       style="fill:#436cac;fill-opacity:1;fill-rule:nonzero;stroke:none;stroke-width:0.172745"
       id="path700" />
    <path
       d="m 45.219615,138.33743 -0.0726,0.23474 c -0.83953,2.71336 -1.99174,6.43276 -2.57044,8.68857 -0.37312,1.4582 -0.37312,3.00076 -0.30922,4.52308 0.6547,-0.5135 1.2334,-1.33878 1.7499,-2.49805 0.11919,-0.2699 0.22628,-0.57695 0.33685,-0.89342 0.25046,-0.71324 0.53205,-1.52501 1.02264,-2.11275 0.41632,-0.50271 0.7238,-0.83066 1.18504,-0.83942 0.007,-0.001 0.0137,-0.001 0.0206,-0.001 0.43532,0 0.69962,0.29018 1.00538,0.6269 0.0933,0.1039 0.20385,0.22603 0.33856,0.36098 l 0.22284,0.22603 c 0.66507,0.67749 1.29386,1.3165 2.03321,1.86915 0.24013,0.18015 0.95355,0.93459 1.67217,1.7261 -0.21418,-2.10263 -1.28177,-3.39281 -2.31997,-4.6486 -0.19346,-0.23347 -0.38351,-0.46288 -0.56141,-0.69098 -0.96392,-1.23215 -2.15759,-3.519 -3.21133,-5.53662 -0.18828,-0.36103 -0.36965,-0.70843 -0.54242,-1.0344 z m -4.125145,15.40531 -0.04505,-0.86913 c -0.103663,-1.94338 -0.20904,-3.95221 0.295365,-5.92731 0.58561,-2.28819 1.743,-6.02313 2.58945,-8.75052 l 0.94491,-3.07175 0.72899,1.27002 c 0.35413,0.61808 0.79808,1.46418 1.28004,2.38872 0.97773,1.87251 2.19386,4.2012 3.08695,5.34294 0.17104,0.21795 0.35241,0.4386 0.53896,0.6633 1.3094,1.58238 2.93839,3.55139 2.60672,7.18444 l -0.13647,1.48048 -0.97602,-1.12082 c -1.26605,-1.45282 -2.3958,-2.64516 -2.58755,-2.79362 -0.81535,-0.60999 -1.50806,-1.31446 -2.17831,-1.99533 l -0.22113,-0.22471 c -0.14686,-0.14979 -0.26947,-0.2848 -0.37485,-0.39879 -0.024,-0.0255 -0.0485,-0.0533 -0.0743,-0.081 -0.0553,0.0601 -0.12609,0.14303 -0.21937,0.25237 -0.34204,0.41231 -0.57524,1.07762 -0.79981,1.72003 -0.12095,0.35089 -0.24185,0.69097 -0.37484,0.99193 h -0.002 c -0.86372,1.94 -1.93301,3.12831 -3.26833,3.63236 l -0.81363,0.30634"
       style="fill:#436cac;fill-opacity:1;fill-rule:nonzero;stroke:none;stroke-width:0.172745"
       id="path702" />
    <path
       d="m 85.678175,35.232576 9.418055,10.42201 9.03452,-10.42201 z m 9.433605,11.942151 c -0.28333,0 -0.556237,-0.112617 -0.760077,-0.312987 L 82.292375,34.920093 c -0.31094,-0.307659 -0.40593,-0.773894 -0.23837,-1.180188 0.16585,-0.402166 0.5597,-0.668008 0.99847,-0.668008 h 23.628005 c 0.4336,0 0.82572,0.259133 0.99501,0.659884 0.16928,0.398886 0.0829,0.860444 -0.21937,1.170694 L 95.889154,46.84481 c -0.202087,0.20713 -0.476787,0.326657 -0.765254,0.329937 -0.003,0 -0.007,0 -0.0122,0"
       style="fill:#436cac;fill-opacity:1;fill-rule:nonzero;stroke:none;stroke-width:0.172745"
       id="path704" />
    <path
       d="m 83.625965,33.071882 h 22.404975 l -3.74683,-4.698484 H 87.447085 Z m 23.054505,2.160694 H 83.052455 c -0.38175,0 -0.73416,-0.201744 -0.92936,-0.530499 -0.19519,-0.327883 -0.20209,-0.734167 -0.0191,-1.068773 l 3.75547,-6.85987 c 0.19004,-0.345462 0.55279,-0.561421 0.94837,-0.561421 H 102.9249 c 0.39384,0 0.75835,0.215944 0.94664,0.561421 l 3.75547,6.85987 c 0.18314,0.334591 0.17795,0.740905 -0.0171,1.068773 -0.19519,0.328716 -0.5476,0.530499 -0.92937,0.530499"
       style="fill:#436cac;fill-opacity:1;fill-rule:nonzero;stroke:none;stroke-width:0.172745"
       id="path706" />
    <path
       d="m 95.11178,47.174727 c -0.456027,0 -0.863727,-0.286747 -1.017464,-0.720504 l -4.23053,-11.941648 c -0.19866,-0.561422 0.095,-1.178294 0.65817,-1.378676 0.55969,-0.199002 1.17985,0.09519 1.3785,0.657984 L 94.9684,44.557312 97.269348,33.873418 c 0.153747,-0.575583 0.742794,-0.921074 1.321481,-0.763704 0.576967,0.153756 0.919004,0.746257 0.763537,1.321845 l -3.199212,11.941644 c -0.1209,0.457447 -0.526867,0.782007 -1.000194,0.799624 -0.0137,0.002 -0.0294,0.002 -0.0431,0.002"
       style="fill:#436cac;fill-opacity:1;fill-rule:nonzero;stroke:none;stroke-width:0.172745"
       id="path708" />
    <path
       d="m 90.128086,35.232576 c -0.0274,0 -0.0553,-0.0014 -0.0829,-0.0035 -0.38351,-0.02889 -0.722077,-0.260504 -0.887907,-0.605986 l -3.321904,-6.859869 c -0.26085,-0.537066 -0.0362,-1.183475 0.50096,-1.442594 0.53551,-0.257223 1.1833,-0.03575 1.44242,0.501305 l 2.513441,6.311924 3.68465,-6.455647 c 0.20038,-0.290227 0.530327,-0.462934 0.882724,-0.466215 0.33684,-0.03771 0.685787,0.167369 0.889627,0.45745 l 3.772726,6.662939 2.425337,-6.496931 c 0.25394,-0.542418 0.89482,-0.77528 1.43551,-0.519618 0.54069,0.25169 0.7739,0.894818 0.51996,1.435336 l -3.21306,6.859869 c -0.16237,0.348792 -0.49922,0.583707 -0.882717,0.616701 -0.386937,0.03428 -0.754897,-0.138381 -0.977724,-0.45275 l -3.924749,-6.401577 -3.886744,6.392768 c -0.20385,0.293656 -0.53552,0.466411 -0.88965,0.466411"
       style="fill:#436cac;fill-opacity:1;fill-rule:nonzero;stroke:none;stroke-width:0.172745"
       id="path710" />
    <path
       d="m 91.214656,138.09524 4.182141,-8.37812 4.182136,8.37812 -4.347963,7.98262 z m 4.232241,-10.44916 -7.930712,10.53743 7.664685,10.05501 8.19845,-10.05501 -7.932423,-10.53743"
       style="fill:#000000;fill-opacity:0;fill-rule:nonzero;stroke:none;stroke-width:0.172745"
       id="path712" />
    <text
       xml:space="preserve"
       style="font-size:25.9117px;line-height:0;font-family:me;-inkscape-font-specification:me;fill:#3e60a0;fill-opacity:1;stroke-width:1.29558"
       x="25.963692"
       y="101.64369"
       id="text2048"><tspan
         sodipodi:role="line"
         id="tspan2046"
         x="25.963692"
         y="101.64369"
         style="font-style:normal;font-variant:normal;font-weight:normal;font-stretch:normal;font-size:25.9117px;line-height:1.15;font-family:Mexcellent;-inkscape-font-specification:Mexcellent;fill:#3e60a0;fill-opacity:1;stroke-width:1.29558">DON DIAMOND</tspan></text>
  </g>
</svg>
